#N canvas 321 245 1280 646 10;
#X obj 296 93 import mrpeach;
#X obj 36 107 unpackOSC;
#X obj 37 153 routeOSC /Speakers;
#X obj 29 367 dac~ 1 2 3 4 5 6 7 8 9 10;
#X obj 36 195 routeOSC /0 /1 /2 /3 /4 /5;
#X text 110 498 5 = Front Top 6 = Front Bottom 7 = Middle Top 8 = Middle
Bottom 9 = Back Bottom 10 = Back Top;
#X obj 35 64 udpreceive 9000;
#N canvas 736 418 450 300 unpack 0;
#X obj 139 79 unpack f f;
#X obj 138 153 osc~;
#X obj 182 153 line~;
#X obj 138 203 *~;
#X msg 182 130 \$1 50;
#X obj 104 21 inlet;
#X obj 130 254 outlet~;
#X connect 0 0 1 0;
#X connect 0 1 4 0;
#X connect 1 0 3 0;
#X connect 2 0 3 1;
#X connect 3 0 6 0;
#X connect 4 0 2 0;
#X connect 5 0 0 0;
#X restore 38 253 pd unpack;
#N canvas 736 418 450 300 unpack 0;
#X obj 139 79 unpack f f;
#X obj 138 153 osc~;
#X obj 182 153 line~;
#X obj 138 203 *~;
#X msg 182 130 \$1 50;
#X obj 104 21 inlet;
#X obj 130 254 outlet~;
#X connect 0 0 1 0;
#X connect 0 1 4 0;
#X connect 1 0 3 0;
#X connect 2 0 3 1;
#X connect 3 0 6 0;
#X connect 4 0 2 0;
#X connect 5 0 0 0;
#X restore 105 253 pd unpack;
#N canvas 736 418 450 300 unpack 0;
#X obj 139 79 unpack f f;
#X obj 138 153 osc~;
#X obj 182 153 line~;
#X obj 138 203 *~;
#X msg 182 130 \$1 50;
#X obj 104 21 inlet;
#X obj 130 254 outlet~;
#X connect 0 0 1 0;
#X connect 0 1 4 0;
#X connect 1 0 3 0;
#X connect 2 0 3 1;
#X connect 3 0 6 0;
#X connect 4 0 2 0;
#X connect 5 0 0 0;
#X restore 173 253 pd unpack;
#N canvas 736 418 450 300 unpack 0;
#X obj 139 79 unpack f f;
#X obj 138 153 osc~;
#X obj 182 153 line~;
#X obj 138 203 *~;
#X msg 182 130 \$1 50;
#X obj 104 21 inlet;
#X obj 130 254 outlet~;
#X connect 0 0 1 0;
#X connect 0 1 4 0;
#X connect 1 0 3 0;
#X connect 2 0 3 1;
#X connect 3 0 6 0;
#X connect 4 0 2 0;
#X connect 5 0 0 0;
#X restore 239 253 pd unpack;
#N canvas 736 418 450 300 unpack 0;
#X obj 139 79 unpack f f;
#X obj 138 153 osc~;
#X obj 182 153 line~;
#X obj 138 203 *~;
#X msg 182 130 \$1 50;
#X obj 104 21 inlet;
#X obj 130 254 outlet~;
#X connect 0 0 1 0;
#X connect 0 1 4 0;
#X connect 1 0 3 0;
#X connect 2 0 3 1;
#X connect 3 0 6 0;
#X connect 4 0 2 0;
#X connect 5 0 0 0;
#X restore 305 253 pd unpack;
#N canvas 736 418 450 300 unpack 0;
#X obj 139 79 unpack f f;
#X obj 138 153 osc~;
#X obj 182 153 line~;
#X obj 138 203 *~;
#X msg 182 130 \$1 50;
#X obj 104 21 inlet;
#X obj 130 254 outlet~;
#X connect 0 0 1 0;
#X connect 0 1 4 0;
#X connect 1 0 3 0;
#X connect 2 0 3 1;
#X connect 3 0 6 0;
#X connect 4 0 2 0;
#X connect 5 0 0 0;
#X restore 370 254 pd unpack;
#X connect 1 0 2 0;
#X connect 2 0 4 0;
#X connect 4 0 7 0;
#X connect 4 1 8 0;
#X connect 4 2 9 0;
#X connect 4 3 10 0;
#X connect 4 4 11 0;
#X connect 4 5 12 0;
#X connect 6 0 1 0;
#X connect 7 0 3 4;
#X connect 8 0 3 5;
#X connect 9 0 3 6;
#X connect 10 0 3 7;
#X connect 11 0 3 8;
#X connect 12 0 3 9;
