#N canvas 1349 732 450 300 10;
#X obj 38 23 import mrpeach;
#X obj 40 62 udpreceive 9001;
#X obj 40 106 unpackOSC;
#X obj 44 152 print;
#X msg 160 115 message;
#X connect 1 0 2 0;
#X connect 2 0 3 0;
#X connect 4 0 3 0;
