#N canvas 0 23 1280 699 10;
#X declare -lib mrpeach;
#X obj 38 23 import mrpeach;
#X obj 40 62 udpreceive 9001;
#X obj 82 104 unpackOSC;
#X obj 45 194 routeOSC /0 /1 /2 /3 /4 /5 /6 /7;
#X obj 35 244 unpack f f;
#X obj 37 153 routeOSC /Speakers;
#X obj 73 393 dac~;
#X obj 74 349 *~;
#X obj 35 309 osc~;
#X obj 104 311 hsl 128 15 0 127 0 0 empty empty empty -2 -8 0 10 -262144
-1 -1 12700 1;
#X obj 251 244 unpack f f;
#X obj 289 393 dac~;
#X obj 290 349 *~;
#X obj 251 309 osc~;
#X obj 320 311 hsl 128 15 0 127 0 0 empty empty empty -2 -8 0 10 -262144
-1 -1 12700 1;
#X obj 472 244 unpack f f;
#X obj 510 393 dac~;
#X obj 511 349 *~;
#X obj 472 309 osc~;
#X obj 541 311 hsl 128 15 0 127 0 0 empty empty empty -2 -8 0 10 -262144
-1 -1 12700 1;
#X obj 687 243 unpack f f;
#X obj 725 392 dac~;
#X obj 726 348 *~;
#X obj 687 308 osc~;
#X obj 756 310 hsl 128 15 0 127 0 0 empty empty empty -2 -8 0 10 -262144
-1 -1 12700 1;
#X obj 901 244 unpack f f;
#X obj 939 393 dac~;
#X obj 940 349 *~;
#X obj 901 309 osc~;
#X obj 970 311 hsl 128 15 0 127 0 0 empty empty empty -2 -8 0 10 -262144
-1 -1 12700 1;
#X obj 32 431 unpack f f;
#X obj 70 580 dac~;
#X obj 71 536 *~;
#X obj 32 496 osc~;
#X obj 101 498 hsl 128 15 0 127 0 0 empty empty empty -2 -8 0 10 -262144
-1 -1 12700 1;
#X obj 256 431 unpack f f;
#X obj 294 580 dac~;
#X obj 295 536 *~;
#X obj 256 496 osc~;
#X obj 325 498 hsl 128 15 0 127 0 0 empty empty empty -2 -8 0 10 -262144
-1 -1 12700 1;
#X obj 479 431 unpack f f;
#X obj 517 580 dac~;
#X obj 518 536 *~;
#X obj 479 496 osc~;
#X obj 548 498 hsl 128 15 0 127 0 0 empty empty empty -2 -8 0 10 -262144
-1 -1 12700 1;
#X connect 1 0 2 0;
#X connect 2 0 5 0;
#X connect 3 0 4 0;
#X connect 3 1 10 0;
#X connect 3 2 15 0;
#X connect 3 3 20 0;
#X connect 3 5 25 0;
#X connect 3 6 30 0;
#X connect 3 7 35 0;
#X connect 3 8 40 0;
#X connect 4 0 8 0;
#X connect 5 0 3 0;
#X connect 7 0 6 0;
#X connect 7 0 6 1;
#X connect 8 0 7 0;
#X connect 9 0 7 1;
#X connect 10 0 13 0;
#X connect 12 0 11 0;
#X connect 12 0 11 1;
#X connect 13 0 12 0;
#X connect 14 0 12 1;
#X connect 15 0 18 0;
#X connect 17 0 16 0;
#X connect 17 0 16 1;
#X connect 18 0 17 0;
#X connect 19 0 17 1;
#X connect 20 0 23 0;
#X connect 22 0 21 0;
#X connect 22 0 21 1;
#X connect 23 0 22 0;
#X connect 24 0 22 1;
#X connect 25 0 28 0;
#X connect 27 0 26 0;
#X connect 27 0 26 1;
#X connect 28 0 27 0;
#X connect 29 0 27 1;
#X connect 30 0 33 0;
#X connect 32 0 31 0;
#X connect 32 0 31 1;
#X connect 33 0 32 0;
#X connect 34 0 32 1;
#X connect 35 0 38 0;
#X connect 37 0 36 0;
#X connect 37 0 36 1;
#X connect 38 0 37 0;
#X connect 39 0 37 1;
#X connect 40 0 43 0;
#X connect 42 0 41 0;
#X connect 42 0 41 1;
#X connect 43 0 42 0;
#X connect 44 0 42 1;
