#N canvas 114 226 1280 646 10;
#X declare -lib mrpeach;
#X obj 38 23 import mrpeach;
#X obj 82 104 unpackOSC;
#X obj 35 244 unpack f f;
#X obj 37 153 routeOSC /Speakers;
#X obj 34 318 osc~;
#X obj 14 424 dac~ 1 2 3 4 5 6 7 8 9 10;
#X obj 195 246 unpack f f;
#X obj 194 320 osc~;
#X obj 656 141 dac~ 1 2 3 4 5 6 7 8 9 10;
#X obj 164 183 routeOSC /0 /1 /2 /3 /4 /5;
#X text 110 498 5 = Front Top 6 = Front Bottom 7 = Middle Top 8 = Middle
Bottom 9 = Back Bottom 10 = Back Top;
#X msg 739 -168 open 02-hans_zimmer-on_thin_ice.wav;
#X obj 746 -41 readsf~;
#X obj 326 245 unpack f f;
#X obj 325 319 osc~;
#X obj 186 424 dac~ 1 2 3 4 5 6 7 8 9 10;
#X obj 364 424 dac~ 1 2 3 4 5 6 7 8 9 10;
#X obj 499 244 unpack f f;
#X obj 537 423 dac~ 1 2 3 4 5 6 7 8 9 10;
#X obj 498 318 osc~;
#X obj 670 244 unpack f f;
#X obj 708 423 dac~ 1 2 3 4 5 6 7 8 9 10;
#X obj 669 318 osc~;
#X obj 840 244 unpack f f;
#X obj 878 423 dac~ 1 2 3 4 5 6 7 8 9 10;
#X obj 839 318 osc~;
#X msg 834 -134 0;
#X msg 489 -148 open 11-hans_zimmer-why_do_we_fall.wav;
#X msg 810 -79 1;
#X obj 747 51 *~ 0.1;
#X obj 276 89 print;
#X obj 40 62 udpreceive 9000;
#X floatatom 876 58 5 0 0 0 - - -;
#X obj 875 105 * 0.01;
#X msg 439 63 0;
#X obj 78 318 line~;
#X obj 34 368 *~;
#X obj 194 370 *~;
#X obj 238 319 line~;
#X obj 363 318 line~;
#X obj 325 369 *~;
#X obj 535 317 line~;
#X obj 498 368 *~;
#X obj 669 368 *~;
#X obj 707 318 line~;
#X obj 877 318 line~;
#X obj 839 368 *~;
#X msg 877 295 \$1 20;
#X msg 78 295 \$1 50;
#X msg 238 296 \$1 50;
#X msg 363 295 \$1 50;
#X msg 535 294 \$1 50;
#X msg 707 295 \$1 50;
#X connect 1 0 3 0;
#X connect 2 0 4 0;
#X connect 2 1 48 0;
#X connect 3 0 9 0;
#X connect 4 0 36 0;
#X connect 6 0 7 0;
#X connect 6 1 49 0;
#X connect 7 0 37 0;
#X connect 9 0 2 0;
#X connect 9 1 6 0;
#X connect 9 2 13 0;
#X connect 9 3 17 0;
#X connect 9 4 20 0;
#X connect 9 5 23 0;
#X connect 11 0 12 0;
#X connect 12 0 29 0;
#X connect 13 0 14 0;
#X connect 13 1 50 0;
#X connect 14 0 40 0;
#X connect 17 0 19 0;
#X connect 17 1 51 0;
#X connect 19 0 42 0;
#X connect 20 0 22 0;
#X connect 20 1 52 0;
#X connect 22 0 43 0;
#X connect 23 0 25 0;
#X connect 23 0 30 0;
#X connect 23 1 47 0;
#X connect 25 0 46 0;
#X connect 26 0 12 0;
#X connect 27 0 12 0;
#X connect 28 0 12 0;
#X connect 29 0 8 9;
#X connect 29 0 8 5;
#X connect 29 0 8 6;
#X connect 29 0 8 8;
#X connect 29 0 8 7;
#X connect 29 0 8 4;
#X connect 31 0 1 0;
#X connect 32 0 33 0;
#X connect 35 0 36 1;
#X connect 36 0 5 4;
#X connect 37 0 15 5;
#X connect 38 0 37 1;
#X connect 39 0 40 1;
#X connect 40 0 16 6;
#X connect 41 0 42 1;
#X connect 42 0 18 7;
#X connect 43 0 21 8;
#X connect 44 0 43 1;
#X connect 45 0 46 1;
#X connect 46 0 24 9;
#X connect 47 0 45 0;
#X connect 48 0 35 0;
#X connect 49 0 38 0;
#X connect 50 0 39 0;
#X connect 51 0 41 0;
#X connect 52 0 44 0;
