#N canvas 907 424 450 300 10;
#X obj 90 49 import mrpeach;
#X obj 91 106 udpreceive 9001;
#X obj 93 159 unpackOSC;
#X obj 98 207 print;
#X msg 206 75 connect localhost 9001;
#X msg 231 101 disconnect;
#X obj 197 248 udpsend;
#X floatatom 328 110 5 0 0 0 - - -, f 5;
#X msg 326 152 send /test/voice \$1;
#X msg 343 181 send /test/mute;
#X obj 249 209 packOSC;
#X connect 1 0 2 0;
#X connect 2 0 3 0;
#X connect 4 0 6 0;
#X connect 5 0 6 0;
#X connect 7 0 8 0;
#X connect 8 0 10 0;
#X connect 9 0 10 0;
#X connect 10 0 6 0;
