#N canvas 1172 358 592 461 10;
#X obj 38 23 import mrpeach;
#X obj 40 62 udpreceive 9001;
#X obj 82 104 unpackOSC;
#X obj 226 133 print;
#X msg 221 34 message;
#X obj 45 194 routeOSC /0 /1 /2 /3 /4 /5 /6 /7;
#X obj 42 250 unpack f f;
#X obj 264 233 unpack f f;
#X obj 256 306 osc~;
#X obj 302 336 *~;
#X obj 271 176 print "received_something";
#X obj 37 153 routeOSC /Speakers;
#X obj 76 396 dac~;
#X obj 77 352 *~;
#X floatatom 34 287 5 0 0 0 - - -, f 5;
#X obj 34 322 osc~;
#X connect 1 0 2 0;
#X connect 2 0 11 0;
#X connect 5 0 6 0;
#X connect 5 0 3 0;
#X connect 5 1 7 0;
#X connect 5 1 3 0;
#X connect 5 8 10 0;
#X connect 7 0 8 0;
#X connect 7 1 9 1;
#X connect 8 0 9 0;
#X connect 11 0 5 0;
#X connect 13 0 12 0;
#X connect 13 0 12 1;
#X connect 14 0 15 0;
#X connect 15 0 13 0;
