#N canvas 113 114 1267 716 12;
#X obj 165 63 inlet~;
#X obj 149 483 *~;
#X obj 90 64 inlet~;
#X obj 149 510 outlet~;
#X obj 191 599 snapshot~;
#X floatatom 192 625 5 0 0 0 - - -;
#X obj 264 599 snapshot~;
#X floatatom 265 625 5 0 0 0 - - -;
#X obj 336 599 snapshot~;
#X floatatom 337 625 5 0 0 0 - - -;
#X obj 410 599 snapshot~;
#X floatatom 411 625 5 0 0 0 - - -;
#X obj 486 599 snapshot~;
#X floatatom 487 625 5 0 0 0 - - -;
#X obj 560 599 snapshot~;
#X floatatom 561 625 5 0 0 0 - - -;
#X obj 634 599 snapshot~;
#X floatatom 635 625 5 0 0 0 - - -;
#X obj 706 599 snapshot~;
#X obj 36 489 metro 50;
#X obj 38 458 tgl 15 0 empty empty empty 17 7 0 10 -262144 -1 -1 1
1;
#X obj 186 127 /~ 8;
#X obj 186 160 round~ 1;
#X obj 167 220 -~;
#X obj 185 190 *~ 8;
#X obj 167 248 *~ 0.25;
#X obj 167 437 cos~;
#X obj 167 408 clip~ -0.25 0.25;
#X obj 274 483 *~;
#X obj 274 510 outlet~;
#X obj 292 437 cos~;
#X obj 397 483 *~;
#X obj 397 510 outlet~;
#X obj 415 437 cos~;
#X obj 521 483 *~;
#X obj 521 510 outlet~;
#X obj 539 437 cos~;
#X obj 646 483 *~;
#X obj 646 510 outlet~;
#X obj 664 437 cos~;
#X obj 771 483 *~;
#X obj 771 510 outlet~;
#X obj 789 437 cos~;
#X obj 894 483 *~;
#X obj 894 510 outlet~;
#X obj 912 437 cos~;
#X obj 1018 483 *~;
#X obj 1018 510 outlet~;
#X obj 1036 437 cos~;
#X obj 292 408 clip~ -0.25 0.25;
#X obj 415 408 clip~ -0.25 0.25;
#X obj 539 408 clip~ -0.25 0.25;
#X obj 664 408 clip~ -0.25 0.25;
#X obj 912 408 clip~ -0.25 0.25;
#X obj 1036 407 clip~ -0.25 0.25;
#X obj 292 375 -~ 0.25;
#X obj 415 375 -~ 0.5;
#X obj 539 375 -~ 0.75;
#X obj 664 376 -~ 1;
#X obj 788 374 -~ 1.25;
#X obj 912 376 -~ 1.5;
#X obj 1035 374 -~ 1.75;
#X floatatom 706 625 5 0 0 0 - - -;
#X obj 181 333 >~ 1.75;
#X obj 180 367 *~ -2;
#X obj 788 408 clip~ -0.25 0.25;
#X obj 114 194 <~ 0;
#X obj 116 226 *~ 8;
#X obj 166 99 *~ 2;
#X connect 0 0 68 0;
#X connect 1 0 3 0;
#X connect 2 0 1 0;
#X connect 2 0 28 0;
#X connect 2 0 31 0;
#X connect 2 0 34 0;
#X connect 2 0 37 0;
#X connect 2 0 40 0;
#X connect 2 0 43 0;
#X connect 2 0 46 0;
#X connect 4 0 5 0;
#X connect 6 0 7 0;
#X connect 8 0 9 0;
#X connect 10 0 11 0;
#X connect 12 0 13 0;
#X connect 14 0 15 0;
#X connect 16 0 17 0;
#X connect 18 0 62 0;
#X connect 19 0 4 0;
#X connect 19 0 6 0;
#X connect 19 0 8 0;
#X connect 19 0 10 0;
#X connect 19 0 12 0;
#X connect 19 0 14 0;
#X connect 19 0 16 0;
#X connect 19 0 18 0;
#X connect 20 0 19 0;
#X connect 21 0 22 0;
#X connect 22 0 24 0;
#X connect 23 0 25 0;
#X connect 23 0 66 0;
#X connect 24 0 23 1;
#X connect 25 0 55 0;
#X connect 25 0 56 0;
#X connect 25 0 57 0;
#X connect 25 0 58 0;
#X connect 25 0 59 0;
#X connect 25 0 60 0;
#X connect 25 0 61 0;
#X connect 25 0 27 0;
#X connect 25 0 63 0;
#X connect 26 0 1 1;
#X connect 26 0 4 0;
#X connect 27 0 26 0;
#X connect 28 0 29 0;
#X connect 30 0 28 1;
#X connect 30 0 6 0;
#X connect 31 0 32 0;
#X connect 33 0 31 1;
#X connect 33 0 8 0;
#X connect 34 0 35 0;
#X connect 36 0 34 1;
#X connect 36 0 10 0;
#X connect 37 0 38 0;
#X connect 39 0 37 1;
#X connect 39 0 12 0;
#X connect 40 0 41 0;
#X connect 42 0 40 1;
#X connect 42 0 14 0;
#X connect 43 0 44 0;
#X connect 45 0 43 1;
#X connect 45 0 16 0;
#X connect 46 0 47 0;
#X connect 48 0 46 1;
#X connect 48 0 18 0;
#X connect 49 0 30 0;
#X connect 50 0 33 0;
#X connect 51 0 36 0;
#X connect 52 0 39 0;
#X connect 53 0 45 0;
#X connect 54 0 48 0;
#X connect 55 0 49 0;
#X connect 56 0 50 0;
#X connect 57 0 51 0;
#X connect 58 0 52 0;
#X connect 59 0 65 0;
#X connect 60 0 53 0;
#X connect 61 0 54 0;
#X connect 63 0 64 0;
#X connect 64 0 27 0;
#X connect 65 0 42 0;
#X connect 66 0 67 0;
#X connect 67 0 25 0;
#X connect 68 0 21 0;
#X connect 68 0 23 0;
