#N canvas 320 501 590 374 10;
#X obj 112 71 osc~ 440;
#X obj 119 132 dac~;
#X obj 195 74 adc~;
#N canvas 736 418 450 300 liu 0;
#X obj 161 -7 inlet~;
#X obj 145 413 *~;
#X obj 86 -6 inlet~;
#X obj 145 440 outlet~;
#X obj 187 529 snapshot~;
#X floatatom 188 555 5 0 0 0 - - -, f 5;
#X obj 260 529 snapshot~;
#X floatatom 261 555 5 0 0 0 - - -, f 5;
#X obj 332 529 snapshot~;
#X floatatom 333 555 5 0 0 0 - - -, f 5;
#X obj 406 529 snapshot~;
#X floatatom 407 555 5 0 0 0 - - -, f 5;
#X obj 482 529 snapshot~;
#X floatatom 483 555 5 0 0 0 - - -, f 5;
#X obj 556 529 snapshot~;
#X floatatom 557 555 5 0 0 0 - - -, f 5;
#X obj 630 529 snapshot~;
#X floatatom 631 555 5 0 0 0 - - -, f 5;
#X obj 702 529 snapshot~;
#X obj 32 419 metro 50;
#X obj 34 388 tgl 15 0 empty empty empty 17 7 0 10 -262144 -1 -1 0
1;
#X obj 182 57 /~ 8;
#X obj 182 90 round~ 1;
#X obj 163 150 -~;
#X obj 181 120 *~ 8;
#X obj 163 178 *~ 0.25;
#X obj 163 367 cos~;
#X obj 163 338 clip~ -0.25 0.25;
#X obj 270 413 *~;
#X obj 270 440 outlet~;
#X obj 288 367 cos~;
#X obj 393 413 *~;
#X obj 393 440 outlet~;
#X obj 411 367 cos~;
#X obj 517 413 *~;
#X obj 517 440 outlet~;
#X obj 535 367 cos~;
#X obj 642 413 *~;
#X obj 642 440 outlet~;
#X obj 660 367 cos~;
#X obj 767 413 *~;
#X obj 767 440 outlet~;
#X obj 785 367 cos~;
#X obj 890 413 *~;
#X obj 890 440 outlet~;
#X obj 908 367 cos~;
#X obj 1014 413 *~;
#X obj 1014 440 outlet~;
#X obj 1032 367 cos~;
#X obj 288 338 clip~ -0.25 0.25;
#X obj 411 338 clip~ -0.25 0.25;
#X obj 535 338 clip~ -0.25 0.25;
#X obj 660 338 clip~ -0.25 0.25;
#X obj 908 338 clip~ -0.25 0.25;
#X obj 1032 337 clip~ -0.25 0.25;
#X obj 288 305 -~ 0.25;
#X obj 411 305 -~ 0.5;
#X obj 535 305 -~ 0.75;
#X obj 660 306 -~ 1;
#X obj 784 304 -~ 1.25;
#X obj 908 306 -~ 1.5;
#X obj 1031 304 -~ 1.75;
#X floatatom 702 555 5 0 0 0 - - -, f 5;
#X obj 177 263 >~ 1.75;
#X obj 176 297 *~ -2;
#X obj 784 338 clip~ -0.25 0.25;
#X obj 110 124 <~ 0;
#X obj 112 156 *~ 8;
#X obj 162 29 *~ 2;
#X connect 0 0 68 0;
#X connect 1 0 3 0;
#X connect 2 0 1 0;
#X connect 2 0 28 0;
#X connect 2 0 31 0;
#X connect 2 0 34 0;
#X connect 2 0 37 0;
#X connect 2 0 40 0;
#X connect 2 0 43 0;
#X connect 2 0 46 0;
#X connect 4 0 5 0;
#X connect 6 0 7 0;
#X connect 8 0 9 0;
#X connect 10 0 11 0;
#X connect 12 0 13 0;
#X connect 14 0 15 0;
#X connect 16 0 17 0;
#X connect 18 0 62 0;
#X connect 19 0 4 0;
#X connect 19 0 6 0;
#X connect 19 0 8 0;
#X connect 19 0 10 0;
#X connect 19 0 12 0;
#X connect 19 0 14 0;
#X connect 19 0 16 0;
#X connect 19 0 18 0;
#X connect 20 0 19 0;
#X connect 21 0 22 0;
#X connect 22 0 24 0;
#X connect 23 0 25 0;
#X connect 23 0 66 0;
#X connect 24 0 23 1;
#X connect 25 0 55 0;
#X connect 25 0 56 0;
#X connect 25 0 57 0;
#X connect 25 0 58 0;
#X connect 25 0 59 0;
#X connect 25 0 60 0;
#X connect 25 0 61 0;
#X connect 25 0 27 0;
#X connect 25 0 63 0;
#X connect 26 0 1 1;
#X connect 26 0 4 0;
#X connect 27 0 26 0;
#X connect 28 0 29 0;
#X connect 30 0 28 1;
#X connect 30 0 6 0;
#X connect 31 0 32 0;
#X connect 33 0 31 1;
#X connect 33 0 8 0;
#X connect 34 0 35 0;
#X connect 36 0 34 1;
#X connect 36 0 10 0;
#X connect 37 0 38 0;
#X connect 39 0 37 1;
#X connect 39 0 12 0;
#X connect 40 0 41 0;
#X connect 42 0 40 1;
#X connect 42 0 14 0;
#X connect 43 0 44 0;
#X connect 45 0 43 1;
#X connect 45 0 16 0;
#X connect 46 0 47 0;
#X connect 48 0 46 1;
#X connect 48 0 18 0;
#X connect 49 0 30 0;
#X connect 50 0 33 0;
#X connect 51 0 36 0;
#X connect 52 0 39 0;
#X connect 53 0 45 0;
#X connect 54 0 48 0;
#X connect 55 0 49 0;
#X connect 56 0 50 0;
#X connect 57 0 51 0;
#X connect 58 0 52 0;
#X connect 59 0 65 0;
#X connect 60 0 53 0;
#X connect 61 0 54 0;
#X connect 63 0 64 0;
#X connect 64 0 27 0;
#X connect 65 0 42 0;
#X connect 66 0 67 0;
#X connect 67 0 25 0;
#X connect 68 0 21 0;
#X connect 68 0 23 0;
#X restore 96 15 pd liu;
#X connect 2 0 1 0;
#X connect 2 1 1 1;
